<svg xmlns="http://www.w3.org/2000/svg" viewBox="0 0 60.22 60.22"><defs><style>.cls-1{fill:#0a3d52;}.cls-2{fill:#76bc1d;}</style></defs><title>Element 7</title><g id="Ebene_2" data-name="Ebene 2"><g id="Layer_1" data-name="Layer 1"><path class="cls-1" d="M50.24,60.22H50c-8.75,0-13-4.58-13-14v-.59l-4.71-4.71,1.42-1.41L39,44.8v1.42c0,8.21,3.32,11.92,10.77,12l.54-.28-5.72-5.72L52,44.8l5.73,5.73L58,50c-.08-7.44-3.79-10.76-12-10.76H44.59l-8.3-8.3,1.42-1.41,7.7,7.71H46c9.42,0,14,4.25,14,13v.23l-1.73,3.46L52,47.63l-4.59,4.59,6.28,6.27Z"/><path class="cls-1" d="M19.29,27.92l-4.7-4.7H14c-9.42,0-14-4.26-14-13V10L1.73,6.53,8,12.8l4.59-4.58L6.31,1.94,9.76.22H10c8.75,0,13,4.58,13,14v.58l7.71,7.71-1.42,1.41L21,15.63V14.22C21,6,17.68,2.29,10.23,2.22l-.54.27,5.72,5.73L8,15.63,2.27,9.91,2,10.45c.08,7.44,3.79,10.77,12,10.77h1.41l5.3,5.29Z"/><path class="cls-2" d="M10.41,60.22H7.59L0,52.63V49.8l22-22L32.41,38.22Zm-2-2H9.59l20-20L22,30.63l-20,20V51.8Z"/><path class="cls-2" d="M30,37.22a1,1,0,0,1-.71-1.71l2.3-2.29L27,28.63l-2.29,2.29a1,1,0,0,1-1.42,0,1,1,0,0,1,0-1.41L27,25.8l7.41,7.42-3.7,3.7A1,1,0,0,1,30,37.22Z"/><path class="cls-2" d="M32,32.22a1,1,0,0,1-.71-1.71l20.3-20.29h2.79l3.4-6.81-1-1L50,5.84V8.63L29.71,28.92a1,1,0,0,1-1.42,0,1,1,0,0,1,0-1.41L48,7.8V4.6L57.2,0l3,3-4.6,9.2H52.41l-19.7,19.7A1,1,0,0,1,32,32.22Z"/><path class="cls-2" d="M10.24,52.67a3.15,3.15,0,0,0,2-.8,1,1,0,0,0,.14-1.5c-1-1-3.48,1.82-5.2.1A2.43,2.43,0,0,1,7.42,47,3.34,3.34,0,0,1,9.7,45.89l.38,1.27a2.93,2.93,0,0,0-1.73.75,1.07,1.07,0,0,0-.17,1.52c1,1,3.39-1.89,5.18-.1a2.37,2.37,0,0,1-.2,3.49A3.85,3.85,0,0,1,10.45,54Z"/><path class="cls-2" d="M12.73,41.65a4,4,0,0,1,5.78,0A4.15,4.15,0,0,1,19.67,44l1.2-.06.06,1.23H19.69a4,4,0,0,1-1.16,2.27,4.07,4.07,0,0,1-5.82,0A4,4,0,0,1,12.73,41.65Zm4.87,4.87a2.64,2.64,0,0,0,.69-1.28l-1.22,0L17,44.05h1.21a3,3,0,0,0-.77-1.39,2.62,2.62,0,1,0-3.7,3.7A2.69,2.69,0,0,0,17.6,46.52Z"/><path class="cls-2" d="M16.85,37.72l1-1,4.74,4.73L25,39l.88.88-3.45,3.45Z"/></g></g></svg>